<svg xmlns="http://www.w3.org/2000/svg" width="46" height="32" viewBox="0 0 41" fill="none">
<path d="M40.5394 17.2753L38.5815 24.5309C38.1209 26.3736 36.854 28.1012 35.3568 29.2529C33.8596 30.5197 31.9018 31.2107 29.9439 31.2107H6.33428C5.64327 31.2107 5.06743 31.0956 4.49158 30.9804C3.22473 30.6349 2.07304 29.8287 1.26686 28.7922C0.460676 27.7557 0 26.4888 0 25.1068C0 24.5309 0.11517 23.8399 0.230338 23.1489L4.83709 6.67979C5.29777 4.83709 6.56462 3.10956 8.06182 1.95787C9.67418 0.691011 11.5169 0 13.4748 0H45.2613L43.8793 5.06743H13.3596C12.6686 5.06743 11.7472 5.41293 11.1714 5.98877C10.4804 6.56462 9.90452 7.25563 9.67418 8.06181C8.29215 13.3596 6.79496 18.5422 5.41293 23.8399C5.1826 24.531 5.06743 25.222 5.5281 25.7978C5.87361 26.3736 6.56462 26.3736 7.14047 26.3736H29.8287C30.5197 26.3736 31.4411 26.0281 32.0169 25.4523C32.7079 24.8765 33.2838 24.1854 33.5141 23.3793L35.1265 17.5057H40.5394V17.2753Z" fill="black"/>
</svg>