<svg xmlns="http://www.w3.org/2000/svg" width="231" height="41" viewBox="0 0 231 41" fill="none">
<path d="M40.5394 17.2753L38.5815 24.5309C38.1209 26.3736 36.854 28.1012 35.3568 29.2529C33.8596 30.5197 31.9018 31.2107 29.9439 31.2107H6.33428C5.64327 31.2107 5.06743 31.0956 4.49158 30.9804C3.22473 30.6349 2.07304 29.8287 1.26686 28.7922C0.460676 27.7557 0 26.4888 0 25.1068C0 24.5309 0.11517 23.8399 0.230338 23.1489L4.83709 6.67979C5.29777 4.83709 6.56462 3.10956 8.06182 1.95787C9.67418 0.691011 11.5169 0 13.4748 0H45.2613L43.8793 5.06743H13.3596C12.6686 5.06743 11.7472 5.41293 11.1714 5.98877C10.4804 6.56462 9.90452 7.25563 9.67418 8.06181C8.29215 13.3596 6.79496 18.5422 5.41293 23.8399C5.1826 24.531 5.06743 25.222 5.5281 25.7978C5.87361 26.3736 6.56462 26.3736 7.14047 26.3736H29.8287C30.5197 26.3736 31.4411 26.0281 32.0169 25.4523C32.7079 24.8765 33.2838 24.1854 33.5141 23.3793L35.1265 17.5057H40.5394V17.2753Z" fill="black"/>
<path d="M11.4008 23.7247L13.3586 16.469C13.9345 14.6263 15.0862 12.8988 16.5834 11.7471C18.1957 10.4803 20.0384 9.78925 21.9963 9.78925H45.6059C46.1817 9.78925 46.7576 9.90441 47.3334 10.0196C48.7155 10.3651 49.8671 11.1713 50.5582 12.2078C51.3643 13.2443 51.7099 14.5112 51.7099 15.8932C51.7099 16.469 51.7098 17.16 51.4795 17.8511L47.1031 34.3202C46.6424 36.1629 45.4907 37.8904 43.8784 39.0421C42.3812 40.309 40.4233 41 38.4654 41H6.79402L8.17605 35.9326H38.5806C39.3868 35.9326 40.193 35.587 40.884 35.0112C41.575 34.4354 42.1508 33.7443 42.3812 32.9382C43.7632 27.6404 45.2604 22.4578 46.6424 17.16C46.7576 16.469 46.8728 15.778 46.5273 15.2022C46.1817 14.6263 45.3756 14.6263 44.7997 14.6263H21.8811C21.1901 14.6263 20.2688 14.9718 19.6929 15.5477C19.0019 16.1235 18.4261 16.8145 18.1957 17.6207L16.5834 23.4943H11.4008V23.7247Z" fill="black"/>
<path fill-rule="evenodd" clip-rule="evenodd" d="M210.644 10.4792V21.4202H230.453V19.6927H217.669V16.3528H230.223V14.7404H217.669V12.2067H230.453V10.5943H210.644V10.4792ZM182.428 10.4792H175.402V21.4202H182.428V10.4792ZM123.807 21.4202H136.706C146.15 21.4202 147.877 18.4258 147.877 16.0073V15.4314C147.877 11.4005 142.579 10.4792 136.36 10.4792H123.922V21.4202H123.807ZM130.832 12.0915H135.439C139.355 12.0915 140.506 13.2432 140.506 15.8921C140.506 18.0803 139.815 19.6927 135.208 19.6927H130.717V12.0915H130.832ZM121.619 10.4792H114.593V21.4202H121.619V10.4792ZM96.0511 12.0915H100.658C103.883 12.0915 105.84 12.437 105.84 13.5887C105.84 14.8556 103.307 15.2011 100.773 15.2011H96.0511V12.0915ZM96.0511 16.6983H101.234C104.458 16.6983 105.38 17.3893 105.38 18.3106V21.4202H112.405V17.85C112.405 17.0438 111.369 16.1224 107.338 15.8921C110.562 15.7769 112.981 14.9708 112.981 13.3584C112.981 11.746 109.411 10.4792 103.652 10.4792H88.9106V21.4202H95.9359V16.6983H96.0511ZM75.3207 15.5466V17.159H80.0426V17.85C80.0426 19.3472 78.4303 19.923 75.3207 19.923C71.6353 19.923 70.3685 19.1168 70.3685 17.3893V13.9342C70.3685 12.5522 71.7505 11.8612 75.4359 11.8612C78.6606 11.8612 80.1578 12.437 80.1578 13.9342H87.1831V13.5887C87.1831 11.8612 84.1887 10.1337 75.4359 10.1337C67.3741 10.1337 63.228 11.4005 63.228 13.9342V17.5045C63.228 20.2685 68.0651 21.4202 73.7084 21.4202C78.1999 21.4202 80.0426 20.8444 81.655 19.923V21.1899H87.1831V15.3163H75.3207V15.5466ZM149.489 10.4792V21.4202H156.054V14.0494L165.498 21.4202H173.099V10.4792H166.419V17.7348L156.975 10.4792H149.489ZM184.731 10.4792V21.4202H191.296V14.0494L200.74 21.4202H208.341V10.4792H201.776V17.7348L192.332 10.4792H184.731Z" fill="black"/>
<path fill-rule="evenodd" clip-rule="evenodd" d="M115.859 31.6704C115.859 30.4035 114.708 29.4822 112.635 29.4822C110.677 29.4822 109.525 30.4035 109.525 31.6704C109.525 32.7069 110.331 33.2827 111.944 33.5131L113.095 33.6283C114.017 33.7434 114.362 33.8586 114.362 34.3193C114.362 34.7799 113.786 35.1255 112.865 35.1255C111.598 35.1255 111.022 34.7799 111.022 33.9738H109.41C109.41 35.5861 110.562 36.2771 112.75 36.2771C114.938 36.2771 116.09 35.471 116.09 34.0889C116.09 32.9372 115.399 32.3614 113.786 32.1311L112.519 32.0159C111.598 31.9007 111.253 31.7856 111.253 31.3249C111.253 30.8642 111.713 30.6339 112.635 30.6339C113.556 30.6339 114.132 30.9794 114.247 31.5552H115.859V31.6704ZM99.8508 29.7125V36.0468H101.463V31.6704L103.421 36.0468H104.688L106.646 31.7856V36.0468H108.258V29.7125H106.07L103.997 34.3193L101.924 29.7125H99.8508ZM92.5952 29.7125V36.0468H98.2385V34.7799H94.2076V33.3979H97.7778V32.1311H94.2076V31.0945H98.2385V29.7125H92.5952ZM85.5699 29.7125V30.9794H87.7581V36.0468H89.3705V30.9794H91.5587V29.7125H85.5699ZM84.5334 31.6704C84.5334 30.4035 83.3817 29.4822 81.3087 29.4822C79.3508 29.4822 78.1991 30.4035 78.1991 31.6704C78.1991 32.7069 79.0053 33.2827 80.6177 33.5131L81.7694 33.6283C82.6907 33.7434 83.0362 33.8586 83.0362 34.3193C83.0362 34.7799 82.4604 35.1255 81.539 35.1255C80.2722 35.1255 79.6963 34.7799 79.6963 33.9738H78.0839C78.0839 35.5861 79.2356 36.2771 81.4238 36.2771C83.612 36.2771 84.7637 35.471 84.7637 34.0889C84.7637 32.9372 84.0727 32.3614 82.4604 32.1311L81.1935 32.0159C80.2722 31.9007 79.9267 31.7856 79.9267 31.3249C79.9267 30.8642 80.3873 30.6339 81.3087 30.6339C82.23 30.6339 82.8059 30.9794 82.921 31.5552H84.5334V31.6704ZM70.3676 29.7125L73.1317 33.3979V36.162H74.7441V33.3979L77.6233 29.7125H75.5502L73.9379 32.0159L72.3255 29.7125H70.3676ZM69.5615 31.6704C69.5615 30.4035 68.4098 29.4822 66.3367 29.4822C64.3789 29.4822 63.2272 30.4035 63.2272 31.6704C63.2272 32.7069 64.0334 33.2827 65.6457 33.5131L66.7974 33.6283C67.7188 33.7434 68.0643 33.8586 68.0643 34.3193C68.0643 34.7799 67.4884 35.1255 66.5671 35.1255C65.3002 35.1255 64.7244 34.7799 64.7244 33.9738H63.112C63.112 35.5861 64.2637 36.2771 66.4519 36.2771C68.6401 36.2771 69.907 35.471 69.907 34.0889C69.907 32.9372 69.1008 32.3614 67.4884 32.1311L66.3367 32.0159C65.4154 31.9007 65.0699 31.7856 65.0699 31.3249C65.0699 30.8642 65.5305 30.6339 66.4519 30.6339C67.3732 30.6339 67.9491 30.9794 68.0643 31.5552H69.5615V31.6704Z" fill="black"/>
</svg>