<svg viewBox="-3 -3 163 123" fill="none" xmlns="http://www.w3.org/2000/svg" class="absolute -mt-24 left-0 right-0 mx-auto sm:mt-4 sm:ml-0 w-20 sm:mr-4"><path fill-rule="evenodd" clip-rule="evenodd" d="M58.875 15.3438C58.875 11.4401 60.4257 7.69632 63.186 4.93602C65.9463 2.17572 69.6901 0.625 73.5938 0.625H83.4062C87.3099 0.625 91.0537 2.17572 93.814 4.93602C96.5743 7.69632 98.125 11.4401 98.125 15.3438V25.1562C98.125 29.0599 96.5743 32.8037 93.814 35.564C91.0537 38.3243 87.3099 39.875 83.4062 39.875V49.6875H137.375C138.676 49.6875 139.924 50.2044 140.844 51.1245C141.764 52.0446 142.281 53.2925 142.281 54.5938V64.4062C142.281 65.7075 141.764 66.9554 140.844 67.8755C139.924 68.7956 138.676 69.3125 137.375 69.3125C136.074 69.3125 134.826 68.7956 133.906 67.8755C132.986 66.9554 132.469 65.7075 132.469 64.4062V59.5H83.4062V64.4062C83.4062 65.7075 82.8893 66.9554 81.9692 67.8755C81.0491 68.7956 79.8012 69.3125 78.5 69.3125C77.1988 69.3125 75.9509 68.7956 75.0308 67.8755C74.1107 66.9554 73.5938 65.7075 73.5938 64.4062V59.5H24.5312V64.4062C24.5312 65.7075 24.0143 66.9554 23.0942 67.8755C22.1741 68.7956 20.9262 69.3125 19.625 69.3125C18.3238 69.3125 17.0759 68.7956 16.1558 67.8755C15.2357 66.9554 14.7188 65.7075 14.7188 64.4062V54.5938C14.7188 53.2925 15.2357 52.0446 16.1558 51.1245C17.0759 50.2044 18.3238 49.6875 19.625 49.6875H73.5938V39.875C69.6901 39.875 65.9463 38.3243 63.186 35.564C60.4257 32.8037 58.875 29.0599 58.875 25.1562V15.3438ZM83.4062 30.0625C84.7075 30.0625 85.9554 29.5456 86.8755 28.6255C87.7956 27.7054 88.3125 26.4575 88.3125 25.1562V15.3438C88.3125 14.0425 87.7956 12.7946 86.8755 11.8745C85.9554 10.9544 84.7075 10.4375 83.4062 10.4375H73.5938C72.2925 10.4375 71.0446 10.9544 70.1245 11.8745C69.2044 12.7946 68.6875 14.0425 68.6875 15.3438V25.1562C68.6875 26.4575 69.2044 27.7054 70.1245 28.6255C71.0446 29.5456 72.2925 30.0625 73.5938 30.0625H83.4062ZM0 93.8438C0 89.9401 1.55072 86.1963 4.31102 83.436C7.07132 80.6757 10.8151 79.125 14.7188 79.125H24.5312C28.4349 79.125 32.1787 80.6757 34.939 83.436C37.6993 86.1963 39.25 89.9401 39.25 93.8438V103.656C39.25 107.56 37.6993 111.304 34.939 114.064C32.1787 116.824 28.4349 118.375 24.5312 118.375H14.7188C10.8151 118.375 7.07132 116.824 4.31102 114.064C1.55072 111.304 0 107.56 0 103.656L0 93.8438ZM14.7188 88.9375C13.4175 88.9375 12.1696 89.4544 11.2495 90.3745C10.3294 91.2946 9.8125 92.5425 9.8125 93.8438V103.656C9.8125 104.957 10.3294 106.205 11.2495 107.125C12.1696 108.046 13.4175 108.562 14.7188 108.562H24.5312C25.8325 108.562 27.0804 108.046 28.0005 107.125C28.9206 106.205 29.4375 104.957 29.4375 103.656V93.8438C29.4375 92.5425 28.9206 91.2946 28.0005 90.3745C27.0804 89.4544 25.8325 88.9375 24.5312 88.9375H14.7188ZM58.875 93.8438C58.875 89.9401 60.4257 86.1963 63.186 83.436C65.9463 80.6757 69.6901 79.125 73.5938 79.125H83.4062C87.3099 79.125 91.0537 80.6757 93.814 83.436C96.5743 86.1963 98.125 89.9401 98.125 93.8438V103.656C98.125 107.56 96.5743 111.304 93.814 114.064C91.0537 116.824 87.3099 118.375 83.4062 118.375H73.5938C69.6901 118.375 65.9463 116.824 63.186 114.064C60.4257 111.304 58.875 107.56 58.875 103.656V93.8438ZM73.5938 88.9375C72.2925 88.9375 71.0446 89.4544 70.1245 90.3745C69.2044 91.2946 68.6875 92.5425 68.6875 93.8438V103.656C68.6875 104.957 69.2044 106.205 70.1245 107.125C71.0446 108.046 72.2925 108.562 73.5938 108.562H83.4062C84.7075 108.562 85.9554 108.046 86.8755 107.125C87.7956 106.205 88.3125 104.957 88.3125 103.656V93.8438C88.3125 92.5425 87.7956 91.2946 86.8755 90.3745C85.9554 89.4544 84.7075 88.9375 83.4062 88.9375H73.5938ZM117.75 93.8438C117.75 89.9401 119.301 86.1963 122.061 83.436C124.821 80.6757 128.565 79.125 132.469 79.125H142.281C146.185 79.125 149.929 80.6757 152.689 83.436C155.449 86.1963 157 89.9401 157 93.8438V103.656C157 107.56 155.449 111.304 152.689 114.064C149.929 116.824 146.185 118.375 142.281 118.375H132.469C128.565 118.375 124.821 116.824 122.061 114.064C119.301 111.304 117.75 107.56 117.75 103.656V93.8438ZM132.469 88.9375C131.168 88.9375 129.92 89.4544 128.999 90.3745C128.079 91.2946 127.562 92.5425 127.562 93.8438V103.656C127.562 104.957 128.079 106.205 128.999 107.125C129.92 108.046 131.168 108.562 132.469 108.562H142.281C143.582 108.562 144.83 108.046 145.751 107.125C146.671 106.205 147.188 104.957 147.188 103.656V93.8438C147.188 92.5425 146.671 91.2946 145.751 90.3745C144.83 89.4544 143.582 88.9375 142.281 88.9375H132.469Z" fill="white" stroke="black" stroke-width="4"></path></svg>