<svg viewBox="0 0 160 121" fill="none" xmlns="http://www.w3.org/2000/svg" class="absolute -mt-24 left-0 right-0 mx-auto sm:mt-4 sm:ml-0 w-20 sm:mr-4"><path d="M13.3334 98.3125C13.8385 98.3125 14.323 98.1133 14.6802 97.7588C15.0374 97.4042 15.2381 96.9233 15.2381 96.4219V7.5625C15.2381 5.30131 16.7695 3.78125 19.0476 3.78125H140.952C143.124 3.78125 144.762 5.55088 144.762 7.89903V96.4219C144.762 96.9233 144.963 97.4042 145.32 97.7588C145.677 98.1133 146.161 98.3125 146.667 98.3125C147.172 98.3125 147.656 98.1133 148.014 97.7588C148.371 97.4042 148.571 96.9233 148.571 96.4219V7.89903C148.571 3.46741 145.227 0 140.952 0H19.0476C14.6324 0 11.4286 3.18003 11.4286 7.5625V96.4219C11.4286 96.9233 11.6293 97.4042 11.9865 97.7588C12.3437 98.1133 12.8282 98.3125 13.3334 98.3125Z" fill="black"></path> <path d="M24.7619 11.3438C24.2568 11.3438 23.7723 11.5429 23.4151 11.8975C23.0579 12.2521 22.8572 12.733 22.8572 13.2344V96.4219C22.8572 96.9233 23.0579 97.4042 23.4151 97.7588C23.7723 98.1133 24.2568 98.3125 24.7619 98.3125H135.238C135.743 98.3125 136.228 98.1133 136.585 97.7588C136.942 97.4042 137.143 96.9233 137.143 96.4219V13.2344C137.143 12.733 136.942 12.2521 136.585 11.8975C136.228 11.5429 135.743 11.3438 135.238 11.3438H24.7619ZM133.333 94.5312H26.6667V15.125H133.333V94.5312Z" fill="black"></path> <path d="M158.095 105.875H1.90476C1.39959 105.875 0.915104 106.074 0.557892 106.429C0.20068 106.783 0 107.264 0 107.766L0 112.209C0 116.739 5.36381 121 9.52381 121H150.476C154.838 121 160 115.876 160 111.547V107.766C160 107.264 159.799 106.783 159.442 106.429C159.085 106.074 158.6 105.875 158.095 105.875ZM156.19 111.547C156.19 113.774 152.72 117.219 150.476 117.219H9.52381C7.12 117.219 3.80952 114.315 3.80952 112.209V109.656H156.19V111.547Z" fill="black"></path></svg>