<svg viewBox="0 0 157 157" fill="none" xmlns="http://www.w3.org/2000/svg" class="absolute -mt-24 left-0 right-0 mx-auto sm:mt-4 sm:ml-0 w-20 sm:mr-4"><path d="M7.35938 157H76.0469C76.6975 157 77.3214 156.742 77.7815 156.281C78.2415 155.821 78.5 155.197 78.5 154.547C78.5 153.896 78.2415 153.272 77.7815 152.812C77.3214 152.352 76.6975 152.094 76.0469 152.094H7.35938C6.70877 152.094 6.0848 151.835 5.62475 151.375C5.1647 150.915 4.90625 150.291 4.90625 149.641V7.35938C4.90625 6.70877 5.1647 6.0848 5.62475 5.62475C6.0848 5.1647 6.70877 4.90625 7.35938 4.90625H110.391C111.041 4.90625 111.665 5.1647 112.125 5.62475C112.585 6.0848 112.844 6.70877 112.844 7.35938V31.8906C112.844 32.5412 113.102 33.1652 113.562 33.6252C114.022 34.0853 114.646 34.3438 115.297 34.3438C115.947 34.3438 116.571 34.0853 117.032 33.6252C117.492 33.1652 117.75 32.5412 117.75 31.8906V7.35938C117.75 3.30191 114.448 0 110.391 0H7.35938C3.30191 0 0 3.30191 0 7.35938V149.641C0 153.698 3.30191 157 7.35938 157Z" fill="black"></path> <path d="M16.8735 132.079H73.5679C74.1049 132.079 74.62 131.881 74.9997 131.528C75.3794 131.175 75.5927 130.696 75.5927 130.197C75.5927 129.698 75.3794 129.219 74.9997 128.866C74.62 128.513 74.1049 128.315 73.5679 128.315H16.8735C16.3365 128.315 15.8215 128.117 15.4417 127.764C15.062 127.411 14.8487 126.932 14.8487 126.433V17.2755C14.8487 16.7763 15.062 16.2976 15.4417 15.9447C15.8215 15.5917 16.3365 15.3934 16.8735 15.3934H101.915C102.452 15.3934 102.967 15.5917 103.347 15.9447C103.727 16.2976 103.94 16.7763 103.94 17.2755V36.0957C103.94 36.5949 104.153 37.0736 104.533 37.4265C104.913 37.7795 105.428 37.9778 105.965 37.9778C106.502 37.9778 107.017 37.7795 107.396 37.4265C107.776 37.0736 107.99 36.5949 107.99 36.0957V17.2755C107.99 14.1626 105.264 11.6294 101.915 11.6294H16.8735C13.5245 11.6294 10.7991 14.1626 10.7991 17.2755V126.433C10.7991 129.546 13.5245 132.079 16.8735 132.079Z" fill="black"></path> <path d="M88.3125 51.5156V149.641C88.3125 153.698 91.6144 157 95.6719 157H149.641C153.698 157 157 153.698 157 149.641V51.5156C157 47.4582 153.698 44.1562 149.641 44.1562H95.6719C91.6144 44.1562 88.3125 47.4582 88.3125 51.5156ZM152.094 51.5156V149.641C152.094 150.291 151.835 150.915 151.375 151.375C150.915 151.835 150.291 152.094 149.641 152.094H95.6719C95.0213 152.094 94.3973 151.835 93.9373 151.375C93.4772 150.915 93.2188 150.291 93.2188 149.641V51.5156C93.2188 50.865 93.4772 50.2411 93.9373 49.781C94.3973 49.321 95.0213 49.0625 95.6719 49.0625H149.641C150.291 49.0625 150.915 49.321 151.375 49.781C151.835 50.2411 152.094 50.865 152.094 51.5156Z" fill="black"></path> <path d="M97.1904 58.6899V132.368C97.1904 135.415 99.6662 137.894 102.709 137.894H143.175C146.217 137.894 148.693 135.415 148.693 132.368V58.6899C148.693 55.6433 146.217 53.1641 143.175 53.1641H102.709C99.6662 53.1641 97.1904 55.6433 97.1904 58.6899ZM145.014 58.6899V132.368C145.014 132.857 144.821 133.325 144.476 133.671C144.131 134.016 143.663 134.21 143.175 134.21H102.709C102.221 134.21 101.753 134.016 101.408 133.671C101.063 133.325 100.869 132.857 100.869 132.368V58.6899C100.869 58.2014 101.063 57.7329 101.408 57.3875C101.753 57.042 102.221 56.848 102.709 56.848H143.175C143.663 56.848 144.131 57.042 144.476 57.3875C144.821 57.7329 145.014 58.2014 145.014 58.6899Z" fill="black"></path> <path d="M62.2812 142.8C62.2812 144.682 60.7562 146.207 58.875 146.207C56.9938 146.207 55.4688 144.682 55.4688 142.8C55.4688 140.919 56.9938 139.394 58.875 139.394C60.7562 139.394 62.2812 140.919 62.2812 142.8Z" fill="white" stroke="black" stroke-width="3"></path> <path d="M126.062 145.292C126.062 147.174 124.537 148.699 122.656 148.699C120.775 148.699 119.25 147.174 119.25 145.292C119.25 143.411 120.775 141.886 122.656 141.886C124.537 141.886 126.062 143.411 126.062 145.292Z" fill="white" stroke="black" stroke-width="3"></path></svg>