<svg viewBox="0 0 110 102" fill="none" xmlns="http://www.w3.org/2000/svg" class="absolute -mt-24 left-0 right-0 mx-auto sm:mt-4 sm:ml-0 w-20 sm:mr-4"><circle cx="67.5" cy="59.5" r="40.5" stroke="black" stroke-width="4"></circle> <circle cx="67.5" cy="59.5" r="34.5" stroke="black" stroke-width="4"></circle> <rect x="70.9689" y="38.1636" width="4.58491" height="22.2602" rx="2.29245" transform="rotate(15 70.9689 38.1636)" fill="black"></rect> <rect x="86.288" y="67.7318" width="4.58491" height="22.5769" rx="2.29245" transform="rotate(120 86.288 67.7318)" fill="black"></rect> <circle cx="67.5" cy="59.5" r="3.5" fill="white" stroke="black" stroke-width="4"></circle> <path d="M68 39L68 34" stroke="black" stroke-width="4" stroke-linecap="round" stroke-linejoin="round"></path> <path d="M68 85L68 80" stroke="black" stroke-width="4" stroke-linecap="round" stroke-linejoin="round"></path> <path d="M88 60L93 60" stroke="black" stroke-width="4" stroke-linecap="round" stroke-linejoin="round"></path> <path d="M42 60L47 60" stroke="black" stroke-width="4" stroke-linecap="round" stroke-linejoin="round"></path> <path d="M33.5 36H10M26.5 49H14.25H11.1875M2 49H5.0625M26.5 62H10M29.5 75H26.0625M2 75H15.75H19.1875M47.5 24L33.25 24H29.6875M19 24H22.5625M37 87H10" stroke="black" stroke-width="4" stroke-linecap="round" stroke-linejoin="round"></path> <rect x="57" y="2" width="22" height="10" rx="5" stroke="black" stroke-width="4"></rect> <rect width="8" height="11" rx="4" transform="matrix(-1 0 0 1 72 10)" fill="black"></rect> <rect x="91.7826" y="13.3766" width="12" height="6" rx="3" transform="rotate(30 91.7826 13.3766)" stroke="black" stroke-width="4"></rect> <rect width="5.9271" height="7.99274" rx="2.96355" transform="matrix(-0.866025 -0.5 -0.5 0.866025 96.8212 22.6483)" fill="black"></rect></svg>