<svg width="113" height="109" viewBox="0 0 113 109" fill="none" xmlns="http://www.w3.org/2000/svg" class="absolute -mt-24 left-0 right-0 mx-auto sm:mt-4 sm:ml-0 w-20 sm:mr-4"><path fill-rule="evenodd" clip-rule="evenodd" d="M84.8884 41.6542C81.1644 45.3783 75.1264 45.3783 71.4024 41.6542C67.6783 37.9301 67.6783 31.8922 71.4024 28.1681C75.1264 24.4441 81.1644 24.444 84.8884 28.1681C88.6125 31.8922 88.6125 37.9301 84.8884 41.6542ZM82.06 38.8258C79.898 40.9877 76.3928 40.9877 74.2308 38.8258C72.0688 36.6638 72.0688 33.1585 74.2308 30.9965C76.3928 28.8346 79.898 28.8346 82.06 30.9965C84.222 33.1585 84.222 36.6638 82.06 38.8258Z" fill="black"></path> <path fill-rule="evenodd" clip-rule="evenodd" d="M112.67 0.38681C112.67 0.38681 111.038 0.758381 108.256 1.54406C97.6632 4.53575 70.395 13.5317 53.0463 30.8804C50.3786 33.548 47.8757 36.0973 45.5605 38.541C36.0717 38.3558 26.0396 42.2432 18.262 50.0208L18.1688 50.1143C16.815 51.4767 18.2234 53.6806 20.1329 53.4739C24.2068 53.0329 28.3804 53.338 32.4346 54.3834C31.2136 56.0306 30.0149 57.674 28.8392 59.3102C27.797 60.7606 26.7728 62.2054 25.7671 63.6423C27.5958 63.2923 29.2846 63.2364 30.8379 63.3929C31.8246 63.4922 32.7566 63.6772 33.6352 63.927C32.0671 64.0298 29.9761 64.1794 27.8812 64.8985C22.7424 66.6624 18.8781 71.2351 15.7145 80.8331L13.7131 86.9054L17.6081 86.3791C17.5532 86.5528 17.501 86.7215 17.4504 86.8852L17.3819 87.1077C16.8009 88.9982 16.1428 91.1399 12.7698 95.4581L4.56863 105.957L17.1968 101.712C23.4389 99.6133 27.344 97.7125 30.2044 95.7476C30.4679 95.5666 30.7217 95.3852 30.9668 95.2039L32.4229 98.4066L36.1822 96.4035C43.708 92.3934 46.8401 88.6014 48.03 84.1409C48.3991 82.7572 48.5737 81.2177 48.703 80.0773C48.7428 79.7265 48.7783 79.4135 48.8138 79.1544C48.8375 78.9823 48.8624 78.8142 48.8893 78.6494C49.2613 79.7489 49.5347 80.9377 49.6637 82.2186C49.8201 83.772 49.7642 85.4607 49.4142 87.2894C50.8511 86.2837 52.2959 85.2595 53.7463 84.2173C55.3262 83.0821 56.9128 81.9254 58.503 80.7479C59.4679 84.6776 59.7396 88.7124 59.3129 92.6539C59.1062 94.5634 61.3101 95.9718 62.6725 94.618L62.766 94.5248C70.4019 86.8889 74.2881 77.0799 74.2519 67.7454C76.7757 65.3608 79.4124 62.774 82.1761 60.0103C98.4109 43.7755 107.331 18.8541 110.861 7.04015C111.102 6.24618 111.319 5.51166 111.511 4.84324C112.313 2.05059 112.695 0.411717 112.695 0.411717L112.662 0.419324L112.67 0.38681ZM33.4522 59.7565C34.0687 58.9086 34.6913 58.0591 35.3199 57.2087C35.3629 57.2167 35.4058 57.2249 35.4487 57.2333C37.6892 57.6718 39.7769 58.6691 41.627 59.8599C41.3475 60.1255 41.0692 60.3966 40.7927 60.6732C40.3297 61.1362 39.882 61.604 39.4493 62.0746C37.7298 61.0952 35.7314 60.2472 33.4522 59.7565ZM40.3815 67.1297C41.095 66.2377 41.8635 65.3441 42.6886 64.4645C42.9918 64.1414 43.3026 63.8201 43.6211 63.5016C44.0356 63.0871 44.4545 62.6858 44.8764 62.2974C45.9015 61.3534 46.9433 60.4857 47.9769 59.6915C50.42 57.8141 52.8174 56.347 54.8412 55.2529L54.941 55.1991C55.117 55.1045 55.29 55.0127 55.4599 54.9238C55.8365 54.7267 56.1977 54.5434 56.5412 54.3738C58.0433 53.6319 59.4246 55.0133 58.6828 56.5154C58.5131 56.8589 58.3299 57.2201 58.1328 57.5966C58.0439 57.7666 57.9521 57.9396 57.8575 58.1155L57.8036 58.2154C56.7095 60.2392 55.2425 62.6366 53.3651 65.0797C52.5708 66.1133 51.7031 67.1551 50.7592 68.1802C50.3708 68.602 49.9694 69.021 49.555 69.4355C49.2715 69.7189 48.9859 69.9963 48.6987 70.2676L48.5921 70.3679C47.627 71.2733 46.6449 72.1105 45.6668 72.8817L45.5448 72.9775C42.9829 74.9839 40.4542 76.5384 38.335 77.684C38.041 77.843 37.7549 77.9941 37.4776 78.1374C36.7389 78.5192 36.0633 78.846 35.4699 79.1199C35.2159 79.2371 34.9769 79.3447 34.7545 79.4427C33.988 79.7804 33.2761 79.0686 33.6139 78.3021C33.7119 78.0796 33.8195 77.8407 33.9367 77.5867C34.2106 76.9932 34.5373 76.3176 34.9192 75.579C35.0625 75.3017 35.2136 75.0156 35.3725 74.7216C36.5181 72.6024 38.0727 70.0737 40.0791 67.5118C40.1788 67.3845 40.2796 67.2571 40.3815 67.1297ZM53.3001 79.6043C52.8093 77.3252 51.9614 75.3267 50.9819 73.6073C51.4526 73.1746 51.9204 72.7269 52.3834 72.2639C52.66 71.9873 52.931 71.7091 53.1967 71.4296C54.3874 73.2797 55.3848 75.3674 55.8232 77.6078C55.8316 77.6507 55.8398 77.6936 55.8478 77.7366C54.9973 78.3652 54.148 78.9878 53.3001 79.6043ZM44.8811 78.3975C41.4306 80.7167 38.3084 82.2478 36.3674 83.103C34.4905 83.9301 32.3531 83.5263 30.9417 82.1149C29.5302 80.7035 29.1265 78.5661 29.9535 76.6891C30.8355 74.6876 32.436 71.4301 34.8784 67.8517C34.6211 67.8705 34.364 67.8877 34.1071 67.9048L34.1048 67.905C29.5894 68.2063 25.1486 68.5026 21.109 77.8407C20.5698 79.0873 20.0377 80.4949 19.5135 82.0853L19.546 82.0809C20.199 81.9927 20.722 81.9248 21.1476 81.8694C22.3837 81.7088 22.7977 81.6549 23.1855 81.5244C23.3804 81.4587 23.5688 81.3736 23.852 81.2458C23.9239 81.2133 24.0021 81.178 24.0879 81.1397C24.5283 80.9427 25.1734 80.663 26.2475 80.2488C23.8528 82.6303 22.7584 84.2813 22.0897 85.7804C21.7259 86.5958 21.4881 87.3663 21.2354 88.185C20.8729 89.3595 20.4797 90.6331 19.6401 92.2809C18.8756 93.7813 17.7409 95.5919 15.9221 97.9204C18.546 97.0382 20.6954 96.2078 22.4877 95.4132C25.8052 93.9423 27.8991 92.5941 29.5141 91.2675C30.6586 90.3273 31.5625 89.398 32.4909 88.4436L32.4917 88.4427C32.8074 88.1182 33.1259 87.7907 33.4577 87.459C33.3651 87.9747 33.311 88.4348 33.2953 88.8654C33.2502 90.1071 33.5256 91.1036 34.1265 92.4817C34.1819 92.6088 34.2402 92.7392 34.3012 92.8734C35.6248 92.1681 36.7723 91.4868 37.7683 90.8255C43.9148 86.7444 44.293 83.4225 44.6936 79.9031C44.7502 79.4061 44.8073 78.9051 44.8811 78.3975ZM44.7493 57.1395C48.4629 54.1685 52.1241 52.094 54.7699 50.7873C56.9595 49.706 59.5531 50.0459 61.2819 51.7747C63.0107 53.5035 63.3506 56.0971 62.2693 58.2866C60.9626 60.9324 58.8881 64.5937 55.9171 68.3073C56.2859 68.8347 56.6461 69.384 56.9896 69.9532C57.9208 71.4963 58.7815 73.271 59.3538 75.2238C65.049 71.0706 71.5753 64.9543 79.3477 57.1819C87.5531 48.9765 93.8794 38.3201 98.5434 28.309C95.0345 27.5866 91.894 26.0032 89.4025 23.5117C86.9561 21.0652 85.3852 17.9931 84.6452 14.5608C74.6639 19.2203 64.0521 25.5314 55.8747 33.7088C48.1023 41.4812 41.986 48.0075 37.8328 53.7027C39.7855 54.2751 41.5603 55.1357 43.1033 56.067C43.6725 56.4105 44.2218 56.7706 44.7493 57.1395ZM25.1842 49.3045C30.3199 45.4758 36.0719 43.2927 41.7128 42.7034L41.7404 42.6728C39.1391 45.5667 36.8487 48.3086 34.9136 50.9229C31.7264 49.9666 28.4544 49.4256 25.1842 49.3045ZM63.4824 87.6026C63.3661 84.464 62.863 81.3237 61.9773 78.2583C64.5286 76.38 67.2014 74.1613 70.0185 71.6434C69.3454 77.1011 67.1822 82.6397 63.4824 87.6026ZM106.949 6.15756C106.449 6.31033 105.925 6.47292 105.38 6.64547C100.871 8.07306 94.9033 10.1745 88.4201 13.0234C88.9504 16.0947 90.2446 18.6969 92.2309 20.6832C94.2718 22.7241 96.9645 24.0353 100.149 24.5367C102.977 18.0817 105.063 12.1464 106.48 7.6647C106.646 7.14169 106.802 6.63881 106.949 6.15756Z" fill="black"></path> <path d="M20 58L11.5 66.5L9.375 68.625M3 75L5.125 72.875" stroke="black" stroke-width="4" stroke-linecap="round" stroke-linejoin="round"></path> <path d="M9 88L4.5 92.5L2.25 94.75" stroke="black" stroke-width="4" stroke-linecap="round" stroke-linejoin="round"></path> <path d="M54 93L40 107" stroke="black" stroke-width="4" stroke-linecap="round" stroke-linejoin="round"></path></svg>