<svg viewBox="0 0 163 162" fill="none" xmlns="http://www.w3.org/2000/svg" class="absolute -mt-24 left-0 right-0 mx-auto sm:mt-4 sm:ml-0 w-20 sm:mr-4"><path d="M2 78.9467V78.7247C3.99582 52.9651 13.3096 33.6455 29.4979 21.4319C45.4644 8.99625 62.7615 3.00049 81.6109 3.00049C101.347 2.77843 119.753 9.44038 136.163 22.7643C152.795 35.8661 161 55.4078 161 80.7233V82.2777C161 107.815 152.795 126.913 136.163 140.015C119.531 153.339 101.126 160 81.3891 160H80.5021C61.2092 159.778 43.4686 153.116 27.0586 139.793C10.6485 126.691 2.22176 106.483 2 78.9467ZM76.7322 44.0825V8.99625H71.41C70.3013 10.3286 69.4142 11.8831 68.5272 13.2155C67.6402 14.5479 66.7531 15.8803 65.8661 17.4347C64.9791 18.7671 63.8703 20.5436 63.205 21.876C62.318 23.2084 61.6527 24.5408 60.9875 26.0953C59.6569 28.3159 58.5481 30.5366 57.6611 32.5351C56.5523 34.5337 55.6653 36.5323 55 38.3088C56.3305 39.1971 57.8828 40.3074 59.6569 40.9736C61.6527 41.6398 63.6485 42.306 65.6444 42.7501C67.8619 43.1943 69.8577 43.4163 71.6318 43.6384C73.6276 43.8605 75.4017 44.0825 76.7322 44.0825ZM86.046 8.99625V43.8605C87.1548 43.8605 88.4854 44.0825 89.8159 43.8605C91.1464 43.8605 92.6988 43.6384 94.0293 43.4163C96.4686 42.9722 99.3515 42.306 101.569 41.6398C104.008 40.7515 106.226 39.6412 107.778 38.3088C105.117 31.8689 102.234 26.7614 99.3515 21.876C96.4686 16.9906 93.1423 12.7714 89.5941 9.21831V8.99625H86.046ZM62.0962 10.9948V10.7728C60.5439 11.439 58.9916 12.5493 57.2176 13.2155C55.6653 13.8817 53.6695 14.7699 52.1172 15.6582C49.0126 17.2127 45.908 18.9892 42.8033 20.9878C39.9205 22.9863 37.0377 25.207 34.5983 27.4276C35.4854 28.3159 36.5941 29.2042 37.4812 29.8704C38.3682 30.5366 39.477 31.4248 40.5858 32.3131C41.4728 32.7572 42.5816 33.4234 43.6904 34.3117C44.7992 34.9779 46.1297 35.8661 47.4603 36.7544C49.2343 32.7572 51.0084 28.538 53.2259 24.7629C55.4435 20.7657 57.8829 16.9906 60.3222 13.6596C60.5439 13.2155 60.7657 12.7714 61.2092 12.3272C61.431 12.1052 61.6527 11.439 62.0962 10.9948ZM129.954 27.4276V27.2056C124.41 22.9863 119.531 19.4333 114.653 17.2127C109.774 14.992 104.895 12.7714 100.46 10.9948C104.008 14.5479 107.113 18.9892 109.109 23.2084C111.326 27.6497 113.544 32.3131 115.318 36.7544C116.205 36.3102 117.314 35.8661 118.644 34.9779C119.753 34.3117 121.305 33.6455 122.636 32.9793C123.967 32.091 125.075 31.2027 126.406 30.3145C127.736 29.2042 129.067 28.3159 129.954 27.4276ZM126.184 76.9481H151.686C151.686 68.7317 149.912 60.9595 146.586 52.9651C143.481 45.1928 133.502 32.9793 133.502 32.9793C133.502 32.9793 130.841 36.3102 129.289 37.4206C127.515 38.5309 125.962 39.4192 124.188 40.3074C123.079 40.9736 121.971 41.8619 120.862 42.306C119.753 42.9722 118.201 43.4163 117.092 44.0825C117.979 45.859 118.866 47.8576 119.753 49.6341C120.418 51.6327 121.527 53.8534 121.971 55.852C123.301 59.405 124.188 63.1801 125.075 66.9552C125.741 70.2862 126.184 73.8392 126.184 76.9481ZM45.908 44.0825V43.8605C44.1339 42.9722 42.1381 42.306 40.5858 41.4177C39.0335 40.3074 37.4812 39.1971 36.1506 38.3088C34.8201 37.6426 33.4895 36.7544 32.3808 35.8661C31.272 34.9779 30.3849 34.0896 29.4979 33.2013C23.7322 38.753 19.5188 44.9708 16.8577 52.2989C13.9749 59.6271 11.9791 67.8435 11.0921 76.7261H38.3682C38.3682 70.5083 39.2552 64.5125 40.8075 58.5168C42.1381 52.2989 44.1339 47.6356 45.908 44.0825ZM76.7322 76.7261V51.1886C74.9582 51.4107 72.7406 51.4107 70.7448 51.1886C68.5272 50.9665 66.3096 50.3003 64.3138 49.6341C62.5397 49.19 60.3222 48.7459 58.5481 48.0797C56.5523 47.6356 54.5565 46.7473 53.0042 45.859C51.6736 48.0797 50.5649 50.7445 49.6778 53.6313C48.569 56.2961 47.9038 59.1829 47.2385 61.8477C46.795 64.5125 46.5732 67.3994 46.3515 69.8421C46.1297 72.2848 45.908 74.7275 45.908 76.7261H76.7322ZM86.046 51.6327V76.7261H118.866C118.866 75.3937 118.866 73.8392 118.644 72.0627C118.201 70.5083 117.979 68.5097 117.757 66.7332C117.092 64.0684 116.427 61.1815 115.54 58.5168C114.653 56.074 113.766 53.6313 112.657 51.6327C112.213 50.5224 111.77 49.19 111.326 48.3018C110.661 47.1914 109.996 46.5252 109.552 45.859C107.113 47.6356 103.787 48.7459 99.795 49.6341C96.0251 50.5224 91.59 51.4107 87.5983 51.6327H86.046ZM38.3682 84.0542H11.0921C11.0921 87.8293 11.7573 92.0486 12.8661 97.1561C13.9749 102.486 16.1925 107.371 18.6318 112.701C19.7406 115.365 21.0711 118.03 22.4017 120.695C23.954 123.138 25.728 125.802 27.5021 128.245C28.8326 127.357 30.1632 126.691 31.272 126.025C32.6025 125.358 34.1548 124.47 35.4854 123.804C37.0377 123.138 38.59 122.471 40.364 121.583C41.9163 120.917 43.9121 120.029 45.908 119.14C44.1339 113.589 42.1381 108.259 40.8075 102.264C39.2552 96.4899 38.3682 90.7162 38.3682 84.2763V84.0542ZM76.7322 110.036V84.0542H45.908C45.908 85.8307 46.1297 88.4955 46.5732 91.1603C46.795 93.8251 47.4603 96.7119 47.9038 99.5988C48.7908 102.708 49.4561 105.817 50.3431 108.481C51.2301 111.146 52.1172 113.367 53.0042 115.365C56.9958 113.811 60.9874 112.701 63.6485 112.034C66.5314 111.146 69.1925 110.48 71.8536 110.258H74.2929C75.1799 110.036 76.0669 110.036 76.7322 110.036ZM86.046 84.0542V109.814C87.5983 110.036 89.3724 110.258 91.1464 110.48C93.1423 110.702 95.5816 111.146 97.5774 111.59L100.904 112.256C102.013 112.701 103.343 112.923 104.452 113.145C105.782 113.589 107.113 113.811 108.444 114.255C109.552 114.699 110.661 114.921 111.548 115.365C114.431 108.037 116.205 102.041 117.314 96.934C118.423 92.0486 118.866 87.8293 118.866 84.2763V84.0542H86.046ZM151.686 84.2763V84.0542H126.184V85.3866C125.962 89.6059 125.297 94.4913 124.41 99.5988C123.523 104.484 121.527 110.258 118.866 117.364C122.414 119.14 125.741 120.917 128.402 122.694C131.063 124.47 133.502 126.469 135.276 128.245C139.046 124.47 142.372 119.363 145.255 112.701C148.138 106.261 150.134 99.5988 151.243 92.4927C151.464 91.1603 151.464 89.8279 151.686 88.4955V84.2763ZM76.7322 151.784V117.142C71.1883 118.03 66.5314 119.14 62.9833 120.029C59.4351 120.917 56.7741 121.805 55 122.694C56.3305 126.025 57.6611 128.911 58.9916 131.576C60.3222 134.019 61.8745 136.684 63.205 138.904C63.6485 139.793 64.5356 140.681 65.2008 141.791C65.8661 142.679 66.3096 143.79 66.9749 144.678C67.6402 145.788 68.3054 147.121 68.9707 148.453C69.8577 149.563 70.523 150.896 71.41 151.784H76.7322ZM86.046 151.784H91.1464C93.1423 150.23 95.1381 148.009 96.6904 145.566C98.4644 143.124 100.46 140.237 101.791 137.794C103.343 134.907 104.895 132.242 106.226 129.578C107.556 126.913 108.665 124.47 109.552 122.694C107.113 121.805 103.787 120.917 100.46 120.029C97.1339 119.14 92.477 118.252 86.046 117.364V151.784ZM129.954 133.575V133.353C129.51 132.686 128.623 131.798 127.958 131.132C127.293 130.466 126.184 129.578 125.075 128.911C124.188 128.245 123.08 127.579 121.749 126.913C120.418 126.247 118.644 125.358 117.092 124.47C116.205 126.247 114.653 129.355 112.435 133.575C110.439 137.794 106.891 142.901 102.456 148.453C108 147.565 112.879 145.566 117.314 142.901C122.192 140.459 126.406 137.128 129.954 133.575ZM47.4603 126.469V126.247C45.908 127.135 43.4686 128.245 41.0293 129.355C38.3682 130.466 35.4854 131.798 32.8243 133.575C34.3766 134.907 35.9289 136.24 37.2594 137.128C38.59 138.238 40.1423 139.126 41.4728 140.015C43.9121 141.569 46.795 143.124 49.6778 144.456C52.5607 145.788 56.1088 147.121 60.5439 148.453C58.9916 146.677 57.8828 144.456 56.7741 142.679C55.6653 140.903 54.3347 139.126 53.2259 137.35C52.1172 135.573 51.2301 133.575 50.3431 131.798C49.2343 130.022 48.3473 128.245 47.4603 126.469Z" fill="white" stroke="black" stroke-width="4"></path></svg>